<?xml version="1.0" encoding="UTF-8" standalone="no"?>
<!DOCTYPE svg PUBLIC "-//W3C//DTD SVG 1.1//EN"
 "http://www.w3.org/Graphics/SVG/1.1/DTD/svg11.dtd">
<!-- Generated by graphviz version 3.0.0 (20220226.1711)
 -->
<!-- Title: dbml Pages: 1 -->
<svg width="1546pt" height="314pt"
 viewBox="0.00 0.00 1545.51 314.31" xmlns="http://www.w3.org/2000/svg" xmlns:xlink="http://www.w3.org/1999/xlink">
<g id="graph0" class="graph" transform="scale(1 1) rotate(0) translate(4 310.31)">
<title>dbml</title>
<!-- UnitKind -->
<g id="UnitKind" class="node">
<title>UnitKind</title>
<ellipse fill="none" stroke="black" stroke-width="0" cx="1445.68" cy="-27.15" rx="85.55" ry="27.31"/>
<text text-anchor="middle" x="1445.68" y="-17.55" font-family="Helvetica,sans-Serif" font-size="32.00" fill="#29235c">UnitKind</text>
</g>
<!-- ProcessingStatus -->
<g id="ProcessingStatus" class="node">
<title>ProcessingStatus</title>
<ellipse fill="none" stroke="black" stroke-width="0" cx="1141.78" cy="-279.15" rx="176.16" ry="27.31"/>
<text text-anchor="middle" x="1141.78" y="-269.55" font-family="Helvetica,sans-Serif" font-size="32.00" fill="#29235c">ProcessingStatus</text>
</g>
<!-- RoleKind -->
<g id="RoleKind" class="node">
<title>RoleKind</title>
<ellipse fill="none" stroke="black" stroke-width="0" cx="1445.68" cy="-207.15" rx="91.65" ry="27.31"/>
<text text-anchor="middle" x="1445.68" y="-197.55" font-family="Helvetica,sans-Serif" font-size="32.00" fill="#29235c">RoleKind</text>
</g>
<!-- TaskStatus -->
<g id="TaskStatus" class="node">
<title>TaskStatus</title>
<ellipse fill="none" stroke="black" stroke-width="0" cx="368.01" cy="-227.15" rx="113.36" ry="27.31"/>
<text text-anchor="middle" x="368.01" y="-217.55" font-family="Helvetica,sans-Serif" font-size="32.00" fill="#29235c">TaskStatus</text>
</g>
<!-- TaskProcessingKind -->
<g id="TaskProcessingKind" class="node">
<title>TaskProcessingKind</title>
<ellipse fill="none" stroke="black" stroke-width="0" cx="723.44" cy="-91.15" rx="206.01" ry="27.31"/>
<text text-anchor="middle" x="723.44" y="-81.55" font-family="Helvetica,sans-Serif" font-size="32.00" fill="#29235c">TaskProcessingKind</text>
</g>
<!-- units -->
<g id="units" class="node">
<title>units</title>
<ellipse fill="none" stroke="black" stroke-width="0" cx="1141.78" cy="-27.15" rx="47.59" ry="27.31"/>
<text text-anchor="middle" x="1141.78" y="-17.55" font-family="Helvetica,sans-Serif" font-size="32.00" fill="#29235c">units</text>
</g>
<!-- units&#45;&gt;UnitKind -->
<g id="edge25" class="edge">
<title>units:e&#45;&gt;UnitKind:w</title>
<path fill="none" stroke="#29235c" stroke-width="3" d="M1189.62,-27.15C1235,-27.15 1304.86,-27.15 1360,-27.15"/>
</g>
<!-- units&#45;&gt;units -->
<!-- units&#45;&gt;units -->
<g id="edge2" class="edge">
<title>units:e&#45;&gt;units:w</title>
<path fill="none" stroke="#29235c" stroke-width="3" d="M1125.03,-52.77C1119.39,-71.52 1124.97,-90.31 1141.78,-90.31 1155.57,-90.31 1161.8,-77.67 1160.48,-62.77"/>
<polygon fill="#29235c" stroke="#29235c" stroke-width="3" points="1163.88,-61.91 1158.52,-52.77 1157.01,-63.26 1163.88,-61.91"/>
<text text-anchor="middle" x="1167.42" y="-62.37" font-family="Helvetica,sans-Serif" font-size="32.00" fill="#29235c">1</text>
<text text-anchor="middle" x="1116.14" y="-62.37" font-family="Helvetica,sans-Serif" font-size="32.00" fill="#29235c">1</text>
</g>
<!-- units&#45;&gt;units -->
<!-- units&#45;&gt;units -->
<g id="edge4" class="edge">
<title>units:e&#45;&gt;units:w</title>
<path fill="none" stroke="#29235c" stroke-width="3" d="M1117.34,-50.55C1093.52,-84.33 1101.67,-126.31 1141.78,-126.31 1178.44,-126.31 1188.4,-91.23 1171.65,-59.41"/>
<polygon fill="#29235c" stroke="#29235c" stroke-width="3" points="1174.43,-57.25 1166.22,-50.55 1168.46,-60.91 1174.43,-57.25"/>
<text text-anchor="middle" x="1157.32" y="-60.15" font-family="Helvetica,sans-Serif" font-size="32.00" fill="#29235c">1</text>
<text text-anchor="middle" x="1126.24" y="-50.55" font-family="Helvetica,sans-Serif" font-size="32.00" fill="#29235c">1</text>
</g>
<!-- units&#45;&gt;units -->
<!-- units&#45;&gt;units -->
<g id="edge6" class="edge">
<title>units:e&#45;&gt;units:w</title>
<path fill="none" stroke="#29235c" stroke-width="3" d="M1113.46,-49.43C1067.9,-96.67 1077.34,-162.31 1141.78,-162.31 1202.82,-162.31 1214.51,-103.41 1176.85,-57.04"/>
<polygon fill="#29235c" stroke="#29235c" stroke-width="3" points="1179.35,-54.59 1170.1,-49.43 1174.11,-59.23 1179.35,-54.59"/>
<text text-anchor="middle" x="1179" y="-59.03" font-family="Helvetica,sans-Serif" font-size="32.00" fill="#29235c">1</text>
<text text-anchor="middle" x="1104.56" y="-59.03" font-family="Helvetica,sans-Serif" font-size="32.00" fill="#29235c">1</text>
</g>
<!-- roles -->
<g id="roles" class="node">
<title>roles</title>
<ellipse fill="none" stroke="black" stroke-width="0" cx="1141.78" cy="-207.15" rx="49.09" ry="27.31"/>
<text text-anchor="middle" x="1141.78" y="-197.55" font-family="Helvetica,sans-Serif" font-size="32.00" fill="#29235c">roles</text>
</g>
<!-- roles&#45;&gt;RoleKind -->
<g id="edge26" class="edge">
<title>roles:e&#45;&gt;RoleKind:w</title>
<path fill="none" stroke="#29235c" stroke-width="3" d="M1190.95,-207.15C1234.65,-207.15 1300.24,-207.15 1353.78,-207.15"/>
</g>
<!-- users -->
<g id="users" class="node">
<title>users</title>
<ellipse fill="none" stroke="black" stroke-width="0" cx="723.44" cy="-163.15" rx="55.16" ry="27.31"/>
<text text-anchor="middle" x="723.44" y="-153.55" font-family="Helvetica,sans-Serif" font-size="32.00" fill="#29235c">users</text>
</g>
<!-- users&#45;&gt;ProcessingStatus -->
<g id="edge27" class="edge">
<title>users:e&#45;&gt;ProcessingStatus:w</title>
<path fill="none" stroke="#29235c" stroke-width="3" d="M768,-179.32C815.96,-196.71 895.58,-224.39 965.7,-243.15 986.08,-248.61 1007.99,-253.71 1029.18,-258.25"/>
</g>
<!-- users&#45;&gt;units -->
<!-- users&#45;&gt;units -->
<g id="edge8" class="edge">
<title>users:e&#45;&gt;units:w</title>
<path fill="none" stroke="#29235c" stroke-width="3" d="M773.43,-151.16C815.58,-144.26 877.64,-134.72 929.7,-118.15 988.26,-99.52 1051.45,-67.91 1093.27,-47.08"/>
<polygon fill="#29235c" stroke="#29235c" stroke-width="3" points="1094.99,-50.13 1102.39,-42.55 1091.87,-43.86 1094.99,-50.13"/>
<text text-anchor="middle" x="1093.49" y="-13.75" font-family="Helvetica,sans-Serif" font-size="32.00" fill="#29235c">1</text>
<text text-anchor="middle" x="779.66" y="-131.96" font-family="Helvetica,sans-Serif" font-size="32.00" fill="#29235c">*</text>
</g>
<!-- users&#45;&gt;units -->
<!-- users&#45;&gt;units -->
<g id="edge10" class="edge">
<title>users:e&#45;&gt;units:w</title>
<path fill="none" stroke="#29235c" stroke-width="3" d="M767.7,-179.64C809.81,-181.13 875.23,-171.48 929.7,-154.15 1000.05,-131.77 1077.09,-90.65 1115.73,-59.05"/>
<polygon fill="#29235c" stroke="#29235c" stroke-width="3" points="1118.08,-61.64 1123.37,-52.46 1113.51,-56.34 1118.08,-61.64"/>
<text text-anchor="middle" x="1132.27" y="-62.06" font-family="Helvetica,sans-Serif" font-size="32.00" fill="#29235c">1</text>
<text text-anchor="middle" x="773.93" y="-189.24" font-family="Helvetica,sans-Serif" font-size="32.00" fill="#29235c">*</text>
</g>
<!-- users&#45;&gt;roles -->
<!-- users&#45;&gt;roles -->
<g id="edge12" class="edge">
<title>users:e&#45;&gt;roles:w</title>
<path fill="none" stroke="#29235c" stroke-width="3" d="M775.08,-173.1C852.7,-184.09 1000.69,-199.81 1082.61,-205.86"/>
<polygon fill="#29235c" stroke="#29235c" stroke-width="3" points="1082.52,-209.36 1092.75,-206.58 1083.02,-202.38 1082.52,-209.36"/>
<text text-anchor="middle" x="1083.85" y="-177.78" font-family="Helvetica,sans-Serif" font-size="32.00" fill="#29235c">1</text>
<text text-anchor="middle" x="781.31" y="-173.1" font-family="Helvetica,sans-Serif" font-size="32.00" fill="#29235c">*</text>
</g>
<!-- users&#45;&gt;users -->
<!-- users&#45;&gt;users -->
<g id="edge14" class="edge">
<title>users:e&#45;&gt;users:w</title>
<path fill="none" stroke="#29235c" stroke-width="3" d="M678.36,-179.17C639.1,-200.48 654.13,-226.31 723.44,-226.31 787.07,-226.31 804.95,-204.54 777.09,-184.49"/>
<polygon fill="#29235c" stroke="#29235c" stroke-width="3" points="778.87,-181.47 768.53,-179.17 775.17,-187.42 778.87,-181.47"/>
<text text-anchor="middle" x="759.63" y="-188.77" font-family="Helvetica,sans-Serif" font-size="32.00" fill="#29235c">1</text>
<text text-anchor="middle" x="669.46" y="-188.77" font-family="Helvetica,sans-Serif" font-size="32.00" fill="#29235c">1</text>
</g>
<!-- tasks -->
<g id="tasks" class="node">
<title>tasks</title>
<ellipse fill="none" stroke="black" stroke-width="0" cx="368.01" cy="-99.15" rx="52.62" ry="27.31"/>
<text text-anchor="middle" x="368.01" y="-89.55" font-family="Helvetica,sans-Serif" font-size="32.00" fill="#29235c">tasks</text>
</g>
<!-- tasks&#45;&gt;TaskProcessingKind -->
<g id="edge28" class="edge">
<title>tasks:e&#45;&gt;TaskProcessingKind:w</title>
<path fill="none" stroke="#29235c" stroke-width="3" d="M420.78,-97.98C447.91,-97.37 483.09,-96.57 519.79,-95.74"/>
</g>
<!-- tasks&#45;&gt;units -->
<!-- tasks&#45;&gt;units -->
<g id="edge20" class="edge">
<title>tasks:e&#45;&gt;units:w</title>
<path fill="none" stroke="#29235c" stroke-width="3" d="M417.36,-89.4C445.98,-80.94 483.18,-69.88 517.19,-64.15 723.73,-29.39 973.83,-31.16 1084,-30.24"/>
<polygon fill="#29235c" stroke="#29235c" stroke-width="3" points="1084.25,-33.74 1094.22,-30.14 1084.18,-26.74 1084.25,-33.74"/>
<text text-anchor="middle" x="1085.32" y="-39.74" font-family="Helvetica,sans-Serif" font-size="32.00" fill="#29235c">1</text>
<text text-anchor="middle" x="423.59" y="-60.6" font-family="Helvetica,sans-Serif" font-size="32.00" fill="#29235c">*</text>
</g>
<!-- tasks&#45;&gt;users -->
<!-- tasks&#45;&gt;users -->
<g id="edge16" class="edge">
<title>tasks:e&#45;&gt;users:w</title>
<path fill="none" stroke="#29235c" stroke-width="3" d="M420.75,-101.14C449.2,-105.53 485.12,-112.31 517.19,-118.15 567.83,-127.38 625.57,-137.47 666.89,-146.16"/>
<polygon fill="#29235c" stroke="#29235c" stroke-width="3" points="666.25,-149.6 676.76,-148.28 667.72,-142.76 666.25,-149.6"/>
<text text-anchor="middle" x="667.86" y="-119.48" font-family="Helvetica,sans-Serif" font-size="32.00" fill="#29235c">1</text>
<text text-anchor="middle" x="426.98" y="-110.74" font-family="Helvetica,sans-Serif" font-size="32.00" fill="#29235c">*</text>
</g>
<!-- tasks&#45;&gt;users -->
<!-- tasks&#45;&gt;users -->
<g id="edge18" class="edge">
<title>tasks:e&#45;&gt;users:w</title>
<path fill="none" stroke="#29235c" stroke-width="3" d="M393.38,-123.02C422.73,-136.5 473.53,-146.2 517.19,-154.15 566.9,-163.21 623.46,-173.1 664.6,-175.83"/>
<polygon fill="#29235c" stroke="#29235c" stroke-width="3" points="664.55,-179.33 674.72,-176.37 664.92,-172.34 664.55,-179.33"/>
<text text-anchor="middle" x="683.62" y="-185.97" font-family="Helvetica,sans-Serif" font-size="32.00" fill="#29235c">1</text>
<text text-anchor="middle" x="387.15" y="-132.62" font-family="Helvetica,sans-Serif" font-size="32.00" fill="#29235c">*</text>
</g>
<!-- task_users -->
<g id="task_users" class="node">
<title>task_users</title>
<ellipse fill="none" stroke="black" stroke-width="0" cx="109.41" cy="-163.15" rx="109.33" ry="27.31"/>
<text text-anchor="middle" x="109.41" y="-153.55" font-family="Helvetica,sans-Serif" font-size="32.00" fill="#29235c">task_users</text>
</g>
<!-- task_users&#45;&gt;TaskStatus -->
<g id="edge29" class="edge">
<title>task_users:e&#45;&gt;TaskStatus:w</title>
<path fill="none" stroke="#29235c" stroke-width="3" d="M187.4,-182.36C219.43,-190.34 256.58,-199.61 288.74,-207.63"/>
</g>
<!-- task_users&#45;&gt;users -->
<!-- task_users&#45;&gt;users -->
<g id="edge24" class="edge">
<title>task_users:e&#45;&gt;users:w</title>
<path fill="none" stroke="#29235c" stroke-width="3" d="M217.02,-168.42C344.46,-170.67 553.63,-170.36 658.41,-167.48"/>
<polygon fill="#29235c" stroke="#29235c" stroke-width="3" points="658.63,-170.98 668.52,-167.19 658.43,-163.98 658.63,-170.98"/>
<text text-anchor="middle" x="659.63" y="-176.79" font-family="Helvetica,sans-Serif" font-size="32.00" fill="#29235c">1</text>
<text text-anchor="middle" x="223.25" y="-178.02" font-family="Helvetica,sans-Serif" font-size="32.00" fill="#29235c">*</text>
</g>
<!-- task_users&#45;&gt;tasks -->
<!-- task_users&#45;&gt;tasks -->
<g id="edge22" class="edge">
<title>task_users:e&#45;&gt;tasks:w</title>
<path fill="none" stroke="#29235c" stroke-width="3" d="M199.08,-147.49C237.67,-138.46 281.58,-127.21 314.81,-117.73"/>
<polygon fill="#29235c" stroke="#29235c" stroke-width="3" points="316.13,-120.99 324.76,-114.85 314.19,-114.27 316.13,-120.99"/>
<text text-anchor="middle" x="315.87" y="-124.45" font-family="Helvetica,sans-Serif" font-size="32.00" fill="#29235c">1</text>
<text text-anchor="middle" x="192.85" y="-118.69" font-family="Helvetica,sans-Serif" font-size="32.00" fill="#29235c">*</text>
</g>
</g>
</svg>
